HIERARCHY
ROOT Model
{
	OFFSET 0 0 0
	CHANNELS 6 Xposition Yposition Zposition Zrotation Xrotation Yrotation
	JOINT Model1
	{
		OFFSET 0 -2.25479 2.99384
		CHANNELS 3 Zrotation Xrotation Yrotation
		JOINT Model2
		{
			OFFSET 12.111 0 0
			CHANNELS 3 Zrotation Xrotation Yrotation
			JOINT Model3
			{
				OFFSET 11.5502 0 0
				CHANNELS 3 Zrotation Xrotation Yrotation
				JOINT Model4
				{
					OFFSET 11.781 0 0
					CHANNELS 3 Zrotation Xrotation Yrotation
					JOINT Model5
					{
						OFFSET 20.0601 0 0
						CHANNELS 3 Zrotation Xrotation Yrotation
						JOINT Model6
						{
							OFFSET 11.1962 0 0
							CHANNELS 3 Zrotation Xrotation Yrotation
							End Site
							{
								OFFSET 0 0 0
							}
						}
					}
					JOINT Model7
					{
						OFFSET 10.8223 0.417534 3.51114
						CHANNELS 3 Zrotation Xrotation Yrotation
						JOINT Model8
						{
							OFFSET -6.07944 0 0
							CHANNELS 3 Zrotation Xrotation Yrotation
							JOINT Model9
							{
								OFFSET -0.27742 10.39 -0.051239
								CHANNELS 3 Zrotation Xrotation Yrotation
								JOINT Model10
								{
									OFFSET -3.4391 -0.282043 1.86678
									CHANNELS 3 Zrotation Xrotation Yrotation
									JOINT Model11
									{
										OFFSET 13.0269 0 0
										CHANNELS 3 Zrotation Xrotation Yrotation
										JOINT Model12
										{
											OFFSET 10.8866 0 0
											CHANNELS 3 Zrotation Xrotation Yrotation
											JOINT Model13
											{
												OFFSET 16.7317 0 0
												CHANNELS 3 Zrotation Xrotation Yrotation
												JOINT Model14
												{
													OFFSET 11.8292 0 0
													CHANNELS 3 Zrotation Xrotation Yrotation
													JOINT Model15
													{
														OFFSET 4.82751 -3.73566 -0.836517
														CHANNELS 3 Zrotation Xrotation Yrotation
														JOINT Model16
														{
															OFFSET 3.75311 -0.0582886 -0.0186462
															CHANNELS 3 Zrotation Xrotation Yrotation
															JOINT Model17
															{
																OFFSET 2.88688 0.0192337 0.014801
																CHANNELS 3 Zrotation Xrotation Yrotation
																End Site
																{
																	OFFSET 0 0 0
																}
															}
														}
													}
													JOINT Model18
													{
														OFFSET 9.72197 -3.06458 0.23877
														CHANNELS 3 Zrotation Xrotation Yrotation
														JOINT Model19
														{
															OFFSET 4.61131 0 0
															CHANNELS 3 Zrotation Xrotation Yrotation
															JOINT Model20
															{
																OFFSET 2.8969 -7.62939e-006 0
																CHANNELS 3 Zrotation Xrotation Yrotation
																End Site
																{
																	OFFSET 0 0 0
																}
															}
														}
													}
													JOINT Model21
													{
														OFFSET 9.54431 -0.745064 0.588943
														CHANNELS 3 Zrotation Xrotation Yrotation
														JOINT Model22
														{
															OFFSET 5.33978 0 0
															CHANNELS 3 Zrotation Xrotation Yrotation
															JOINT Model23
															{
																OFFSET 3.03619 7.62939e-006 0
																CHANNELS 3 Zrotation Xrotation Yrotation
																End Site
																{
																	OFFSET 0 0 0
																}
															}
														}
													}
													JOINT Model24
													{
														OFFSET 9.47759 1.51286 0.485123
														CHANNELS 3 Zrotation Xrotation Yrotation
														JOINT Model25
														{
															OFFSET 4.96136 7.62939e-006 0
															CHANNELS 3 Zrotation Xrotation Yrotation
															JOINT Model26
															{
																OFFSET 2.51966 0 0
																CHANNELS 3 Zrotation Xrotation Yrotation
																End Site
																{
																	OFFSET 0 0 0
																}
															}
														}
													}
													JOINT Model27
													{
														OFFSET 9.34247 3.34117 -0.239273
														CHANNELS 3 Zrotation Xrotation Yrotation
														JOINT Model28
														{
															OFFSET 3.2826 2.28882e-005 0
															CHANNELS 3 Zrotation Xrotation Yrotation
															JOINT Model29
															{
																OFFSET 2.1292 0 0
																CHANNELS 3 Zrotation Xrotation Yrotation
																End Site
																{
																	OFFSET 0 0 0
																}
															}
														}
													}
												}
											}
										}
									}
								}
							}
						}
					}
					JOINT Model30
					{
						OFFSET 10.8223 0.4179 -3.51106
						CHANNELS 3 Zrotation Xrotation Yrotation
						JOINT Model31
						{
							OFFSET 6.07944 0 0
							CHANNELS 3 Zrotation Xrotation Yrotation
							JOINT Model32
							{
								OFFSET 0.27742 -10.39 0.051239
								CHANNELS 3 Zrotation Xrotation Yrotation
								JOINT Model33
								{
									OFFSET 3.4391 0.282043 -1.86678
									CHANNELS 3 Zrotation Xrotation Yrotation
									JOINT Model34
									{
										OFFSET -13.0269 0 0
										CHANNELS 3 Zrotation Xrotation Yrotation
										JOINT Model35
										{
											OFFSET -10.8866 0 0
											CHANNELS 3 Zrotation Xrotation Yrotation
											JOINT Model36
											{
												OFFSET -16.7317 0 0
												CHANNELS 3 Zrotation Xrotation Yrotation
												JOINT Model37
												{
													OFFSET -11.8292 0 0
													CHANNELS 3 Zrotation Xrotation Yrotation
													JOINT Model38
													{
														OFFSET -4.82751 3.73566 0.836517
														CHANNELS 3 Zrotation Xrotation Yrotation
														JOINT Model39
														{
															OFFSET -3.75311 0.0582886 0.0186462
															CHANNELS 3 Zrotation Xrotation Yrotation
															JOINT Model40
															{
																OFFSET -2.88689 -0.0192337 -0.014801
																CHANNELS 3 Zrotation Xrotation Yrotation
																End Site
																{
																	OFFSET 0 0 0
																}
															}
														}
													}
													JOINT Model41
													{
														OFFSET -9.72197 3.06459 -0.23877
														CHANNELS 3 Zrotation Xrotation Yrotation
														JOINT Model42
														{
															OFFSET -4.6113 0 0
															CHANNELS 3 Zrotation Xrotation Yrotation
															JOINT Model43
															{
																OFFSET -2.8969 0 0
																CHANNELS 3 Zrotation Xrotation Yrotation
																End Site
																{
																	OFFSET 0 0 0
																}
															}
														}
													}
													JOINT Model44
													{
														OFFSET -9.5443 0.745064 -0.588943
														CHANNELS 3 Zrotation Xrotation Yrotation
														JOINT Model45
														{
															OFFSET -5.33978 0 0
															CHANNELS 3 Zrotation Xrotation Yrotation
															JOINT Model46
															{
																OFFSET -3.03619 -1.52588e-005 0
																CHANNELS 3 Zrotation Xrotation Yrotation
																End Site
																{
																	OFFSET 0 0 0
																}
															}
														}
													}
													JOINT Model47
													{
														OFFSET -9.47758 -1.51286 -0.485123
														CHANNELS 3 Zrotation Xrotation Yrotation
														JOINT Model48
														{
															OFFSET -4.96136 -1.52588e-005 0
															CHANNELS 3 Zrotation Xrotation Yrotation
															JOINT Model49
															{
																OFFSET -2.51965 0 0
																CHANNELS 3 Zrotation Xrotation Yrotation
																End Site
																{
																	OFFSET 0 0 0
																}
															}
														}
													}
													JOINT Model50
													{
														OFFSET -9.34245 -3.34118 0.239273
														CHANNELS 3 Zrotation Xrotation Yrotation
														JOINT Model51
														{
															OFFSET -3.28259 -2.28882e-005 0
															CHANNELS 3 Zrotation Xrotation Yrotation
															JOINT Model52
															{
																OFFSET -2.1292 0 0
																CHANNELS 3 Zrotation Xrotation Yrotation
																End Site
																{
																	OFFSET 0 0 0
																}
															}
														}
													}
												}
											}
										}
									}
								}
							}
						}
					}
				}
			}
		}
	}
	JOINT Model53
	{
		OFFSET 4.38026 -2.14632 -1.11516
		CHANNELS 3 Zrotation Xrotation Yrotation
		JOINT Model54
		{
			OFFSET 0 0 4.95
			CHANNELS 3 Zrotation Xrotation Yrotation
			JOINT Model55
			{
				OFFSET 18.5642 0 0
				CHANNELS 3 Zrotation Xrotation Yrotation
				JOINT Model56
				{
					OFFSET 21.2884 0 1.52588e-005
					CHANNELS 3 Zrotation Xrotation Yrotation
					JOINT Model57
					{
						OFFSET 30.261 0 0
						CHANNELS 3 Zrotation Xrotation Yrotation
						JOINT Model58
						{
							OFFSET 11.7259 0 0
							CHANNELS 3 Zrotation Xrotation Yrotation
							JOINT Model59
							{
								OFFSET 10.682 0 0
								CHANNELS 3 Zrotation Xrotation Yrotation
								End Site
								{
									OFFSET 0 0 0
								}
							}
						}
					}
				}
			}
		}
	}
	JOINT Model60
	{
		OFFSET -4.38026 -2.14632 -1.11516
		CHANNELS 3 Zrotation Xrotation Yrotation
		JOINT Model61
		{
			OFFSET 0 0 -4.95
			CHANNELS 3 Zrotation Xrotation Yrotation
			JOINT Model62
			{
				OFFSET -18.5642 0 0
				CHANNELS 3 Zrotation Xrotation Yrotation
				JOINT Model63
				{
					OFFSET -21.2884 0 -1.52588e-005
					CHANNELS 3 Zrotation Xrotation Yrotation
					JOINT Model64
					{
						OFFSET -30.261 0 0
						CHANNELS 3 Zrotation Xrotation Yrotation
						JOINT Model65
						{
							OFFSET -11.7259 0 0
							CHANNELS 3 Zrotation Xrotation Yrotation
							JOINT Model66
							{
								OFFSET -10.682 0 0
								CHANNELS 3 Zrotation Xrotation Yrotation
								End Site
								{
									OFFSET 0 0 0
								}
							}
						}
					}
				}
			}
		}
	}
}
MOTION
Frames: 4
Frame Time: 0.033333
-137.445 178.779 -169.169 -160.658 -2.43089 155.765 -180 4.29621e-031 -90 -2.1809 7.12827 1.57045 -5.30754 8.02871 4.69293 -5.29583 8.01136 4.73832 -1.0118 38.6224 -38.3989 -31.1409 22.5014 24.9586 120.092 75.5343 58.4939 -20.3068 -30.3343 -12.6461 -167.277 84.4999 48.8109 141.911 -22.4247 -59.127 2.31425e-005 -15.9574 3.24592e-005 -109.589 -11.3711 0.584877 -7.73082e-007 -17.1171 -1.03006e-006 12.803 -2.68823 -23.6244 -72.0648 39.0385 39.3397 33.3638 2.10362 14.835 0.588947 0.308273 6.35287 -99.6409 81.413 100.35 -0.0181409 2.76349e-005 -0.117315 -0.124139 0.00241094 -0.799296 -79.8382 79.5773 80.5374 -0.000225778 -0.000221052 2.21707e-005 -0.000956228 0.00012272 -2.73529e-005 -66.7416 80.4058 67.2171 -0.000437132 1.5806e-005 -2.73447e-005 -0.000136604 -0.00010948 -5.4674e-005 -6.42159 81.2158 8.01779 -0.000218564 1.66599e-005 0.000212115 0.000901586 -0.000185138 -0.0002186 -59.9282 75.5373 58.5147 15.1616 22.9728 1.71977 -167.277 84.4999 48.8109 -166.171 -13.0277 6.1604 5.82143e-006 2.2125 2.91588e-005 -88.0609 20.2076 0.648531 -6.68633e-006 29.8573 2.86918e-006 -9.73698 -1.10368 12.9032 -72.0648 39.0385 39.3397 33.3638 2.10361 14.835 0.588946 0.308273 6.35287 -99.6409 81.413 100.35 -0.0181409 3.01304e-005 -0.117315 -0.124139 0.00241119 -0.799296 -79.8382 79.5773 80.5374 -0.000260647 -0.000218516 2.35813e-005 -0.000956227 0.000123064 -2.73059e-005 -66.7416 80.4058 67.2171 -0.000437132 1.49312e-005 -2.73104e-005 -0.000136604 -0.000109215 -5.46275e-005 -6.42159 81.2158 8.01779 -0.000218556 1.96433e-005 0.000212307 0.000901596 -0.000191158 -0.000218552 0.000811311 0.56661 89.91 -46.3034 3.91304 -14.0093 -6.91131e-008 8.61177 -1.0635e-009 42.6399 -13.7289 -0.00559886 -4.83277e-008 -20.6732 -2.95774e-008 -61.62 -2.61174 0.907754 -35.4947 4.32975e-006 -5.13785e-007 -180 -0.566579 -90.09 55.5759 -49.9965 -28.6885 -5.99484e-006 -11.8929 -9.29719e-007 0.000621719 -5.61015 0.000323518 9.15725e-007 -8.40397 8.40722e-007 -11.3289 7.98405 -10.0928 -39.2861 9.51753 -0.394557 
-136.497 181.377 -172.678 179.73 13.8769 151.949 -180 4.29621e-031 -90 -1.66226 5.26466 0.662076 -3.61415 8.47002 1.72572 -3.61579 8.46749 1.73891 1.52274 40.5802 -51.6493 -34.1361 21.1545 28.2809 120.092 75.5343 58.4939 -30.7777 -32.182 -15.7049 -167.277 84.4999 48.8109 129.287 -7.29549 -55.106 1.73979e-005 -5.81671 3.137e-005 -97.9307 -7.21211 0.607928 -6.63261e-007 -11.112 -1.00325e-006 12.9727 -2.56313 -22.2635 -72.0648 39.0385 39.3397 33.3638 2.10362 14.835 0.588947 0.308273 6.35287 -99.6409 81.413 100.35 -0.0181409 2.76349e-005 -0.117315 -0.124139 0.00241094 -0.799296 -79.8382 79.5773 80.5374 -0.000225778 -0.000221052 2.21707e-005 -0.000956228 0.00012272 -2.73529e-005 -66.7416 80.4058 67.2171 -0.000437132 1.5806e-005 -2.73447e-005 -0.000136604 -0.00010948 -5.4674e-005 -6.42159 81.2158 8.01779 -0.000218564 1.66599e-005 0.000212115 0.000901586 -0.000185138 -0.0002186 -59.9282 75.5373 58.5147 19.8988 23.9482 0.160037 -167.277 84.4999 48.8109 -164.81 -7.74957 11.2901 3.49154e-006 6.76355 2.93413e-005 -81.4321 20.4055 0.642189 -6.6987e-006 30.071 2.87536e-006 -6.48102 -0.123854 2.18723 -72.0648 39.0385 39.3397 33.3638 2.10361 14.835 0.588946 0.308273 6.35287 -99.6409 81.413 100.35 -0.0181409 3.01304e-005 -0.117315 -0.124139 0.00241119 -0.799296 -79.8382 79.5773 80.5374 -0.000260647 -0.000218516 2.35813e-005 -0.000956227 0.000123064 -2.73059e-005 -66.7416 80.4058 67.2171 -0.000437132 1.49312e-005 -2.73104e-005 -0.000136604 -0.000109215 -5.46275e-005 -6.42159 81.2158 8.01779 -0.000218556 1.96433e-005 0.000212307 0.000901596 -0.000191158 -0.000218552 0.000811311 0.56661 89.91 -60.3787 2.91574 -11.3313 -6.91892e-008 4.51844 -1.05479e-009 39.6862 -13.5206 -0.00522779 -4.81528e-008 -20.3556 -2.95161e-008 -59.3028 1.56158 -1.61047 -35.4947 4.31171e-006 -5.34576e-007 -180 -0.566579 -90.09 82.2104 -15.3707 2.29868 -6.3905e-006 -32.8426 -1.08284e-006 0.000653644 -1.06281 0.00051249 8.15836e-007 -1.58296 8.32013e-007 11.2592 5.93143 -9.69064 -35.4947 8.65245e-008 -1.67426e-008 
-135.937 183.777 -176.782 163.216 27.1023 153.225 -180 4.29621e-031 -90 -1.21683 4.4694 -0.37386 -2.41538 8.94524 -0.655102 -2.41538 8.94568 -0.655083 7.72339 38.6989 -58.6041 -35.4854 22.5593 23.6107 120.092 75.5343 58.4939 -33.4813 -30.4582 -14.8921 -167.277 84.4999 48.8109 119.065 -0.580206 -38.4283 1.35293e-005 1.26553 3.12161e-005 -76.0132 -2.61852 0.591681 -5.47702e-007 -4.51839 -9.87506e-007 8.85577 -0.813445 -10.4757 -72.0648 39.0385 39.3397 33.3638 2.10362 14.835 0.588947 0.308273 6.35287 -99.6409 81.413 100.35 -0.0181409 2.76349e-005 -0.117315 -0.124139 0.00241094 -0.799296 -79.8382 79.5773 80.5374 -0.000225778 -0.000221052 2.21707e-005 -0.000956228 0.00012272 -2.73529e-005 -66.7416 80.4058 67.2171 -0.000437132 1.5806e-005 -2.73447e-005 -0.000136604 -0.00010948 -5.4674e-005 -6.42159 81.2158 8.01779 -0.000218564 1.66599e-005 0.000212115 0.000901586 -0.000185138 -0.0002186 -59.9282 75.5373 58.5147 18.0324 23.2105 0.730228 -167.277 84.4999 48.8109 -166.62 -5.5892 15.5752 3.19854e-006 7.33104 2.93772e-005 -66.2895 22.0991 0.600808 -6.84292e-006 32.4956 2.95027e-006 -5.93205 0.221432 -4.27172 -72.0648 39.0385 39.3397 33.3638 2.10361 14.835 0.588946 0.308273 6.35287 -99.6409 81.413 100.35 -0.0181409 3.01304e-005 -0.117315 -0.124139 0.00241119 -0.799296 -79.8382 79.5773 80.5374 -0.000260647 -0.000218516 2.35813e-005 -0.000956227 0.000123064 -2.73059e-005 -66.7416 80.4058 67.2171 -0.000437132 1.49312e-005 -2.73104e-005 -0.000136604 -0.000109215 -5.46275e-005 -6.42159 81.2158 8.01779 -0.000218556 1.96433e-005 0.000212307 0.000901596 -0.000191158 -0.000218552 0.000811311 0.56661 89.91 -73.3005 -0.440235 -6.8027 -6.93031e-008 -1.67607 -1.05196e-009 35.5698 -11.3241 -0.00465343 -4.63743e-008 -17.0532 -2.89455e-008 -59.839 3.4186 -2.8024 -35.4947 4.19041e-006 -5.36503e-007 -180 -0.566579 -90.09 61.0346 -19.9871 -1.96579 -6.22696e-006 -24.974 -1.0036e-006 49.1341 -0.455936 -0.00552531 8.04096e-007 -0.774501 8.31771e-007 1.73843 6.06112 -8.53648 -35.4947 5.58609e-007 -2.19164e-007 
-135.886 186.324 -181.594 149.841 36.4248 157.184 -180 4.29621e-031 -90 -0.837743 4.57172 -1.19041 -1.58733 9.15903 -2.32458 -1.58733 9.15947 -2.32457 8.88344 37.5486 -60.0122 -32.9104 23.8556 19.4565 120.092 75.5343 58.4939 -32.8583 -28.1209 -12.9975 -167.277 84.4999 48.8109 116.686 -2.75534 -23.4285 1.25705e-005 3.02321 3.1252e-005 -56.4859 0.869097 0.507811 -4.59049e-007 0.631955 -9.84497e-007 2.44571 -0.0566318 -2.65256 -72.0648 39.0385 39.3397 33.3638 2.10362 14.835 0.588947 0.308273 6.35287 -99.6409 81.413 100.35 -0.0181409 2.76349e-005 -0.117315 -0.124139 0.00241094 -0.799296 -79.8382 79.5773 80.5374 -0.000225778 -0.000221052 2.21707e-005 -0.000956228 0.00012272 -2.73529e-005 -66.7416 80.4058 67.2171 -0.000437132 1.5806e-005 -2.73447e-005 -0.000136604 -0.00010948 -5.4674e-005 -6.42159 81.2158 8.01779 -0.000218564 1.66599e-005 0.000212115 0.000901586 -0.000185138 -0.0002186 -59.9282 75.5373 58.5147 12.4388 21.6799 2.44923 -167.277 84.4999 48.8109 -170.189 -6.11281 18.5471 4.32063e-006 5.15088 2.92552e-005 -46.0071 23.3615 0.475778 -6.96204e-006 34.4046 3.01594e-006 -6.31609 0.437089 -7.90946 -72.0648 39.0385 39.3397 33.3638 2.10361 14.835 0.588946 0.308273 6.35287 -99.6409 81.413 100.35 -0.0181409 3.01304e-005 -0.117315 -0.124139 0.00241119 -0.799296 -79.8382 79.5773 80.5374 -0.000260647 -0.000218516 2.35813e-005 -0.000956227 0.000123064 -2.73059e-005 -66.7416 80.4058 67.2171 -0.000437132 1.49312e-005 -2.73104e-005 -0.000136604 -0.000109215 -5.46275e-005 -6.42159 81.2158 8.01779 -0.000218556 1.96433e-005 0.000212307 0.000901596 -0.000191158 -0.000218552 0.000811311 0.56661 89.91 -87.0588 -1.94523 -5.45875 -6.9359e-008 -4.71248 -1.05508e-009 37.1503 -10.5166 -0.00482671 -4.57399e-008 -15.845 -2.87659e-008 -62.8325 3.10215 -2.59937 -35.4947 3.96195e-006 -5.17839e-007 -180 -0.566579 -90.09 40.1906 -22.1792 -8.23066 -6.1159e-006 -18.9664 -9.61989e-007 77.0623 -3.42587 -0.0074029 8.694e-007 -5.25857 8.3521e-007 -0.632346 6.09895 -8.31371 -35.4947 7.46058e-007 -2.96686e-007 
